<svg xmlns="http://www.w3.org/2000/svg" viewBox="0 0 1838.35 498.24"><defs><style>.cls-1{fill:#4b4a4b;}.cls-2{fill:#9fafc1;}</style></defs><title>Asset 2</title><g id="Layer_2" data-name="Layer 2"><g id="Layer_1-2" data-name="Layer 1"><path class="cls-1" d="M1838.22,106.9c-121.63-.7-247.36-19-376.11-50.44C903-40.68,689.4-18.51,376.11,170.24,228.85,245.21,95.73,291,0,259.79V370H376.11V496.24h1086V222.68L1837.35,240Z"/><path class="cls-2" d="M1837.35,90.56c-125.18,3.5-259.65,21.36-400.91,49.68v.23c-288.13,57.45-690.89,94.36-1060.33,106.7Q149.73,273.21,0,259.79V398.45H376.11v97.79h1086V403.45h375.24Z"/><path d="M1838.33,324.25c-.1-35.54-79.53-64-85.41-66l-.61-.28c-73.2-34.76-210.79-41.52-243.87-30.35l-46.33,15.65c-152.67,50.82-291.2,165.32-529.55,171.36-248,6.29-476.45-118.74-556.45-136.73C225.78,248.12,79.59,331.67,0,388V498.12l376.11.12H1838.22S1838.4,345.16,1838.33,324.25Z"/></g></g></svg>